<?xml version="1.0" encoding="utf-8"?>
<!-- Generator: Adobe Illustrator 21.0.0, SVG Export Plug-In . SVG Version: 6.00 Build 0)  -->
<svg version="1.1" id="Layer_1" xmlns="http://www.w3.org/2000/svg" xmlns:xlink="http://www.w3.org/1999/xlink" x="0px" y="0px"
	 viewBox="0 0 248 248" style="enable-background:new 0 0 248 248;" xml:space="preserve">
<style type="text/css">
	.st0{fill:#970A82;}
	.st1{fill:#F0AB00;}
	.st2{opacity:0.7;fill:#F0AB00;enable-background:new    ;}
	.st3{opacity:0.4;fill:#F0AB00;enable-background:new    ;}
</style>
<title>282708_Money-coins_R</title>
<g id="color_band">
	<path class="st0" d="M180.46,138.84v4c-17.85,0.17-27.58,4.83-27.58,7.25s9.73,7.08,27.58,7.25v4c-11-0.11-21.91-2-27.58-5.55v8.68
		c0,2.46,10.08,7.26,28.57,7.26c6.37,0.08,12.73-0.61,18.94-2.07v4.11c-6.22,1.36-12.57,2.03-18.94,2
		c-11.32,0-22.73-1.89-28.57-5.56v10.57l0,0c0,2.46,10.08,7.26,28.57,7.26s28.57-4.8,28.57-7.26l0,0v-0.12h4v-30.57
		c0-7.39-16.38-11.26-32.57-11.26"/>
</g>
<g id="_100_band">
	<path class="st1" d="M152.88,178.7L152.88,178.7v2l0,0c0,2.46,10.08,7.26,28.57,7.26s28.57-4.8,28.57-7.26l0,0v-0.12h4v-1.88
		H152.88z"/>
</g>
<g id="_70_band">
	<path class="st2" d="M181.45,171.73c6.37,0.08,12.73-0.61,18.94-2.07v4.11c-6.22,1.36-12.57,2.03-18.94,2
		c-11.32,0-22.73-1.89-28.57-5.56v8.54H214v-13.3h-60.71C155.34,168,165.11,171.73,181.45,171.73z"/>
</g>
<g id="_40_band">
	<path class="st3" d="M214,152.11h-59.47c3.46,2.36,12.34,5.1,25.93,5.23v4c-11-0.11-21.91-2-27.58-5.55v8.68
		c0.03,0.35,0.17,0.68,0.41,0.94H214V152.11z"/>
</g>
<g id="outlines_--_combound_path">
	<path d="M142,93.6c0-7.39-16.38-11.26-32.56-11.26c-3.45,0-6.89,0.18-10.32,0.54V64.66c0-7.39-16.38-11.26-32.56-11.26
		S34,57.27,34,64.66v110l0,0c0.56,7.14,16.64,10.88,32.53,10.88c16.18,0,32.56-3.87,32.56-11.26l0,0v-7.14
		c1.77,0.08,4.7,0.17,8.22,0.17c11.71,0,30-1.05,34-7.29c0.64-1,0.71-2.31,0.67-4.34L142,93.6z M38,86.76
		c5.84,3.67,17.24,5.56,28.56,5.56c10.69,0,21.47-1.69,27.55-5v11.29c-3,2.51-12.46,5.71-27.55,5.71c-18.46,0-28.56-4.8-28.56-7.26
		V86.76z M95.12,174.23c0,2.46-10.08,7.26-28.56,7.26S38,176.7,38,174.23c0-0.11,0.02-0.21,0.05-0.31H38v-9.05
		c5.84,3.67,17.24,5.56,28.56,5.56s22.72-1.89,28.56-5.56v8.45 M95.12,159.17c0,2.46-10.08,7.26-28.56,7.26S38,161.62,38,159.15
		v-9.59c5.84,3.67,17.24,5.56,28.56,5.56s22.72-1.89,28.56-5.56V159.17z M95.12,143.88c0,2.46-10.08,7.26-28.56,7.26
		S38,146.32,38,143.86v-9.94c5.84,3.67,17.24,5.56,28.56,5.56s22.72-1.89,28.56-5.56V143.88z M95.12,128.24
		c0,2.46-10.08,7.26-28.56,7.26S38,130.68,38,128.21v-9.6c5.84,3.66,17.24,5.56,28.56,5.56s22.72-1.89,28.56-5.56V128.24z
		 M95.12,112.95c0,2.46-10.08,7.26-28.56,7.26S38,115.38,38,112.92v-10.16c5.84,3.67,17.24,5.56,28.56,5.56c10.94,0,22-1.77,28-5.2
		c0.16,0.22,0.37,0.4,0.61,0.54L95.12,112.95z M95.12,81.1c0,2.46-10.08,7.26-28.56,7.26S38,83.53,38,81.06v-10.7
		c5.84,3.66,17.24,5.56,28.56,5.56S89.3,74,95.14,70.36L95.12,81.1z M66.58,71.92C48.1,71.92,38,67.12,38,64.66
		s10.1-7.26,28.58-7.26s28.56,4.8,28.56,7.26C95.14,67.12,85.06,71.92,66.58,71.92z M99.14,86.92c3.43-0.38,6.87-0.57,10.32-0.57
		c18.48,0,28.56,4.8,28.56,7.26s-10.08,7.26-28.56,7.26c-3.45,0-6.89-0.19-10.32-0.57L99.14,86.92z M99.14,104.33
		c3.43,0.36,6.87,0.54,10.32,0.54c11.31,0,22.72-1.89,28.56-5.56v10.54c-0.18,1.21-0.85,2.3-1.86,3c-6.69,5.29-27.26,4.93-37,3.88
		L99.14,104.33z M99.14,120.71c2.56,0.23,7.54,0.6,13.22,0.6c9.1,0,20-1,25.65-4.91v9.44c-0.18,1.21-0.85,2.3-1.86,3
		c-6.68,5.29-27.25,4.93-37,3.89L99.14,120.71z M99.14,136.71c2.56,0.23,7.53,0.6,13.21,0.6c9.1,0,20-1,25.66-4.9v8.78
		c-0.18,1.21-0.85,2.3-1.86,3c-6.69,5.29-27.26,4.93-37,3.88L99.14,136.71z M138,157.81c-3.33,5.18-30,6-38.84,5.35V152
		c2.56,0.23,7.54,0.6,13.22,0.6c9.1,0,20-1,25.65-4.91v7.73 M138.03,156.24l72,24.35h4v0.12l0,0c0,7.39-16.38,11.26-32.57,11.26
		s-32.57-3.87-32.57-11.26v-2l0,0v-13.3l0,0v-15.3l0,0l0,0c-0.02-0.23-0.02-0.45,0-0.68c0-0.08,0-0.15,0-0.23s0.05-0.29,0.09-0.43
		s0.06-0.17,0.09-0.26s0.08-0.25,0.13-0.37s0.09-0.18,0.14-0.27s0.11-0.23,0.17-0.34s0.12-0.19,0.19-0.28s0.13-0.21,0.21-0.31
		l0.24-0.29l0.24-0.28l0.28-0.29l0.26-0.26l0.34-0.29l0.28-0.24L152,145l0.3-0.22l0.45-0.29l0.31-0.2l0.51-0.29l0.31-0.17l0.57-0.29
		l0.31-0.15l0.63-0.29l0.3-0.13l0.71-0.29l0.28-0.11l0.78-0.29l0.25-0.09l0.86-0.29l0.22-0.07l0.93-0.28l0.19-0.06l1-0.28h0.15
		l1.1-0.27h0.1l1.19-0.27l0,0c5.58-1.12,11.25-1.69,16.94-1.71v4c-17.85,0.17-27.58,4.83-27.58,7.25c0,0.58,0.56,1.28,1.64,2
		c3.46,2.36,12.34,5.1,25.93,5.23v4c-11-0.11-21.91-2-27.58-5.55v8.68c0.03,0.35,0.17,0.68,0.41,0.94l0,0
		c2,2.57,11.82,6.32,28.16,6.32c6.37,0.08,12.73-0.61,18.94-2.07v4.11c-6.22,1.36-12.57,2.03-18.94,2
		c-11.32,0-22.73-1.89-28.57-5.56v8.54l0,0v2l0,0c0,2.46,10.08,7.26,28.57,7.26s28.57-4.8,28.57-7.26l0,0L138.03,156.24z"/>
</g>
</svg>
