<svg xmlns="http://www.w3.org/2000/svg" viewBox="0 0 248 248"><defs><style>.cls-1{fill:#970a82;}.cls-2,.cls-3,.cls-4{fill:#f0ab00;}.cls-3{opacity:0.7;}.cls-4{opacity:0.4;}</style></defs><title>284288-pictogram</title><g id="outlines_--_combound_path" data-name="outlines -- combound path"><path d="M12,181.89H34.76a24.37,24.37,0,0,0-7.53,8H12v4H29.62l.56-1.07a20,20,0,0,1,35.64,0l.56,1.07H181.62l.56-1.07a20,20,0,0,1,35.64,0l.56,1.07H236v-4H220.77a24.37,24.37,0,0,0-7.53-8H236v-4H12Zm174.76,0a24.37,24.37,0,0,0-7.53,8H68.77a24.37,24.37,0,0,0-7.53-8Zm28.91-72H176v60h60v-24Zm-23.67,4h21.33l18.09,32H192Zm-12,0h8v32h-8Zm52,52H180v-16h52Zm-184,24a12,12,0,1,0,12,12A12,12,0,0,0,48,189.89Zm0,20a8,8,0,1,1,8-8A8,8,0,0,1,48,209.89Zm152-20a12,12,0,1,0,12,12A12,12,0,0,0,200,189.89Zm0,20a8,8,0,1,1,8-8A8,8,0,0,1,200,209.89ZM69.07,58.79a2,2,0,0,0,2.83,2.83,31.71,31.71,0,0,1,44.85,0,2,2,0,0,0,2.83,0,2,2,0,0,0,.58-1.41,2,2,0,0,0-.58-1.42,35.72,35.72,0,0,0-50.51,0Zm9,9.33a2,2,0,0,0,2.83,2.82,19,19,0,0,1,26.85,0,2,2,0,0,0,2.83-2.82A23,23,0,0,0,78.07,68.12ZM59.91,50a2,2,0,0,0,2.83,2.82,44.68,44.68,0,0,1,63.17,0,2,2,0,0,0,2.83,0,2,2,0,0,0,0-2.82,48.66,48.66,0,0,0-68.83,0Z"/></g><g id="color_band" data-name="color band"><rect class="cls-1" x="50" y="51.89" width="80" height="156" transform="translate(-39.89 219.89) rotate(-90)"/></g><g id="_100_band" data-name="100% band"><rect class="cls-2" x="80" y="81.89" width="20" height="156" transform="translate(-69.89 249.89) rotate(-90)"/></g><g id="_70_band" data-name="70% band"><rect class="cls-3" x="80" y="61.89" width="20" height="156" transform="translate(-49.89 229.89) rotate(-90)"/></g><g id="_40_band" data-name="40% band"><rect class="cls-4" x="80" y="41.89" width="20" height="156" transform="translate(-29.89 209.89) rotate(-90)"/></g></svg>