<svg xmlns="http://www.w3.org/2000/svg" viewBox="0 0 248 248"><defs><style>.cls-1{fill:#970a82;}.cls-2,.cls-3,.cls-4{fill:#f0ab00;}.cls-3{opacity:0.7;}.cls-4{opacity:0.4;}</style></defs><title>284284-pictogram</title><g id="color_band" data-name="color band"><path class="cls-1" d="M73,94.58h4v45.18h36.77V94.58h4v33.17h24.71V114.46H127.56V101.17h0V87.87h0V82.62c0-1.93-1.34-8.05-7.36-8.05H70.5c-6,0-7.37,6.12-7.37,8.05v5.25h0v13.3h0v13.29h0v13.28H73Z"/></g><g id="_100_band" data-name="100% band"><path class="cls-2" d="M120.2,74.57H70.5c-6,0-7.37,6.12-7.37,8.05v5.25h64.43V82.62C127.56,80.69,126.22,74.57,120.2,74.57Z"/></g><g id="_70_band" data-name="70% band"><polygon class="cls-3" points="73.02 94.58 77.02 94.58 77.02 101.17 77.02 101.17 113.78 101.17 113.78 101.17 113.78 94.58 117.78 94.58 117.78 101.17 117.78 101.17 127.56 101.17 127.56 87.87 63.13 87.87 63.13 101.17 73.02 101.17 73.02 101.17 73.02 94.58"/></g><g id="_40_band" data-name="40% band"><path class="cls-4" d="M117.78,114.47v-13.3h9.78v13.3Zm-4,0v-13.3H77v13.3Zm-50.65-13.3v13.3H73v-13.3Z"/></g><g id="outlines_--_combound_path" data-name="outlines -- combound path"><path d="M93.77,74.57h-4v-21a11.47,11.47,0,0,1,22.94,0v5.73a9.57,9.57,0,0,1-9.56,9.57v-4a5.58,5.58,0,0,0,5.56-5.57V53.59a7.47,7.47,0,0,0-14.94,0ZM204.28,103.9H190.11l1.65,11.19h11.71v4H166.32v8.66h37.36v78.64H162.32V143.76H138.67a17.15,17.15,0,0,1,6.18,13.18l0,.32-5.52,35,16.54,14.18H123.76V174.13H109.93L107,192.22l16.54,14.17h-29v-4h18.17L104.15,195H94.5v-4h8.68l2.7-16.88H80.32v32.16h-4V156.84h.55A13.31,13.31,0,0,1,73,147.45h0v-3.69H61.34v62.53h-4V143.76H50v62.53H46V139.76H73v-8H46v-4H73V101.17h0V94.58h4v6.59h0v38.59h36.77V101.17h0V94.58h4v6.59h0v26.58H142.5V114.47h6.74a8.62,8.62,0,0,1,7.27,13.28h5.81V115.09h12.11l-1.65-11.19H137.64V48.66h66.64ZM146.5,127.75h2.74a4.64,4.64,0,1,0,0-9.28H146.5Zm-22.74,33.09H80.32v9.29h43.44ZM136.41,195h-8.65v7.38H145Zm-8.75-51.25H77v3.73h0a9.4,9.4,0,0,0,9.39,9.35h41.36V191h7.68l5.4-34.19A13.19,13.19,0,0,0,127.66,143.76Zm72,0H166.32v58.63h33.36Zm-81.89-12v8h81.89v-8Zm69.93-16.67-1.65-11.19h-9.25l1.66,11.19Zm12.56-62.43H141.64V99.9h58.64Zm-15.77,23.4-1.66-2.91,1.66-2.89h6.7a7.9,7.9,0,0,0-10-4.37A7.79,7.79,0,0,0,176,74l-26.34,9.59L151,87.37l26.31-9.57a8.06,8.06,0,0,0,9.3,2.94,8.64,8.64,0,0,0,4.7-4.67ZM160.88,32.42a1.81,1.81,0,0,0,0,2.54,1.82,1.82,0,0,0,1.27.52,1.78,1.78,0,0,0,1.26-.52,10.71,10.71,0,0,1,15.13,0,1.8,1.8,0,0,0,2.53,0,1.79,1.79,0,0,0,0-2.54A14.3,14.3,0,0,0,160.88,32.42ZM171,20.48a21.69,21.69,0,0,0-15.45,6.4,1.79,1.79,0,0,0,2.53,2.53,18.28,18.28,0,0,1,25.84,0,1.74,1.74,0,0,0,1.26.52,1.79,1.79,0,0,0,1.27-3.05A21.71,21.71,0,0,0,171,20.48Zm20.9,1.14a29.55,29.55,0,0,0-41.8,0,1.79,1.79,0,0,0,2.53,2.53,26,26,0,0,1,36.74,0,1.76,1.76,0,0,0,1.26.52,1.79,1.79,0,0,0,1.27-3.05Z"/></g></svg>